# xmcd
#
# Track frame offsets: 
#        150
#        4815
#        15506
#        33530
#        56653
#        76987
#        104767
#        135233
#        162931
#        190493
#        215686
#        237249
#        239534
#        254188
#        271648
#        289367
#        322420
#
# Disc length: 4712 seconds
#
# Revision: 1
# Processed by: cddbd v1.5.2PL0 Copyright (c) Steve Scherf et al.
# Submitted via: ExactAudioCopy v1.0b1
#
DISCID=01126611
DTITLE=Various Artist - Global Communication – Back In The Box CD2
DYEAR=2011
DGENRE=Techno, Downtempo, Ambient
TTITLE0=Link - Intro (The Labels)
TTITLE1=Ismistik - Flow Charts
TTITLE2=Yennek - Serena X (Carl Craig Inner Zone Remix)
TTITLE3=Psyche - Elements
TTITLE4=Never On Sunday - The Journey
TTITLE5=As One - Amalia
TTITLE6=Aphex Twin - Tha
TTITLE7=Stasis - Point Of No Return
TTITLE8=Balil - Whirling Of The Spirits
TTITLE9=808 State - Sunrise
TTITLE10=Urban Tribe - Covert Action
TTITLE11=Link - Places Of Origin
TTITLE12=Model 500 - Infoworld
TTITLE13=Reel By Real - Surkit
TTITLE14=Ross 154 - Mayflower
TTITLE15=Global Communication - Incidental Harmony
TTITLE16=Barbarella - Barbarella (The Irresistible Force Remix)
EXTD=
EXTT0=
EXTT1=
EXTT2=
EXTT3=
EXTT4=
EXTT5=
EXTT6=
EXTT7=
EXTT8=
EXTT9=
EXTT10=
EXTT11=
EXTT12=
EXTT13=
EXTT14=
EXTT15=
EXTT16=
PLAYORDER=
